<svg xmlns="http://www.w3.org/2000/svg" width="388" height="148" viewBox="0 0 388 148">
  <defs>
    <!-- Scanlines -->
    <pattern id="scanlines" width="4" height="4" patternUnits="userSpaceOnUse">
      <rect width="4" height="2" fill="#000000" fill-opacity="0.08" />
    </pattern>
    <!-- Vignette -->
    <radialGradient id="vignette" cx="50%" cy="50%" r="75%">
      <stop offset="0%" stop-color="#0f111a" stop-opacity="0"/>
      <stop offset="80%" stop-color="#07080d" stop-opacity="0.4"/>
      <stop offset="100%" stop-color="#000000" stop-opacity="0.8"/>
    </radialGradient>
  </defs>

  <!-- Octagon Background Fill & Border Stroke (Outer corners are transparent) -->
  <path d="M 14,8 H 374 L 380,14 V 134 L 374,140 H 14 L 8,134 V 14 Z" fill="#0f111a" stroke="#e6e6e6" stroke-width="2" />
  
  <!-- Screen glow vignette confined to the octagon -->
  <path d="M 14,8 H 374 L 380,14 V 134 L 374,140 H 14 L 8,134 V 14 Z" fill="url(#vignette)" />

  <!-- Inner Octagon Frame Border -->
  <path d="M 17,12 H 371 L 376,17 V 131 L 371,136 H 17 L 12,131 V 17 Z" fill="none" stroke="#78909c" stroke-width="1" opacity="0.4" />

  <!-- Corner details (crosses in corner) -->
  <path d="M 14,14 h 4 M 16,12 v 4" stroke="#e6e6e6" stroke-width="1" />
  <path d="M 370,14 h 4 M 372,12 v 4" stroke="#e6e6e6" stroke-width="1" />
  <path d="M 14,134 h 4 M 16,132 v 4" stroke="#e6e6e6" stroke-width="1" />
  <path d="M 370,134 h 4 M 372,132 v 4" stroke="#e6e6e6" stroke-width="1" />

  <!-- ==================== PIXEL ART LETTERS: J O N A S ==================== -->
  
  <!-- J -->
  <g>
    <rect x="24" y="24" width="11" height="11" fill="#1b1e2b"/><rect x="36" y="24" width="11" height="11" fill="#1b1e2b"/><rect x="48" y="24" width="11" height="11" fill="#1b1e2b"/><rect x="60" y="24" width="11" height="11" fill="#1b1e2b"/><rect x="72" y="24" width="11" height="11" fill="#1b1e2b"/><rect x="72" y="36" width="11" height="11" fill="#1b1e2b"/><rect x="72" y="48" width="11" height="11" fill="#1b1e2b"/><rect x="72" y="60" width="11" height="11" fill="#1b1e2b"/><rect x="24" y="72" width="11" height="11" fill="#1b1e2b"/><rect x="72" y="72" width="11" height="11" fill="#1b1e2b"/><rect x="24" y="84" width="11" height="11" fill="#1b1e2b"/><rect x="72" y="84" width="11" height="11" fill="#1b1e2b"/><rect x="36" y="96" width="11" height="11" fill="#1b1e2b"/><rect x="48" y="96" width="11" height="11" fill="#1b1e2b"/><rect x="60" y="96" width="11" height="11" fill="#1b1e2b"/>
    <rect x="20" y="20" width="11" height="11" fill="#ff5252"/><rect x="32" y="20" width="11" height="11" fill="#ff5252"/><rect x="44" y="20" width="11" height="11" fill="#ff5252"/><rect x="56" y="20" width="11" height="11" fill="#ff5252"/><rect x="68" y="20" width="11" height="11" fill="#ff5252"/><rect x="68" y="32" width="11" height="11" fill="#ff5252"/><rect x="68" y="44" width="11" height="11" fill="#ff5252"/><rect x="68" y="56" width="11" height="11" fill="#ff5252"/><rect x="20" y="68" width="11" height="11" fill="#ff5252"/><rect x="68" y="68" width="11" height="11" fill="#ff5252"/><rect x="20" y="80" width="11" height="11" fill="#ff5252"/><rect x="68" y="80" width="11" height="11" fill="#ff5252"/><rect x="32" y="92" width="11" height="11" fill="#ff5252"/><rect x="44" y="92" width="11" height="11" fill="#ff5252"/><rect x="56" y="92" width="11" height="11" fill="#ff5252"/>
  </g>

  <!-- O -->
  <g>
    <rect x="108" y="24" width="11" height="11" fill="#1b1e2b"/><rect x="120" y="24" width="11" height="11" fill="#1b1e2b"/><rect x="132" y="24" width="11" height="11" fill="#1b1e2b"/><rect x="96" y="36" width="11" height="11" fill="#1b1e2b"/><rect x="144" y="36" width="11" height="11" fill="#1b1e2b"/><rect x="96" y="48" width="11" height="11" fill="#1b1e2b"/><rect x="144" y="48" width="11" height="11" fill="#1b1e2b"/><rect x="96" y="60" width="11" height="11" fill="#1b1e2b"/><rect x="144" y="60" width="11" height="11" fill="#1b1e2b"/><rect x="96" y="72" width="11" height="11" fill="#1b1e2b"/><rect x="144" y="72" width="11" height="11" fill="#1b1e2b"/><rect x="96" y="84" width="11" height="11" fill="#1b1e2b"/><rect x="144" y="84" width="11" height="11" fill="#1b1e2b"/><rect x="108" y="96" width="11" height="11" fill="#1b1e2b"/><rect x="120" y="96" width="11" height="11" fill="#1b1e2b"/><rect x="132" y="96" width="11" height="11" fill="#1b1e2b"/>
    <rect x="104" y="20" width="11" height="11" fill="#ffd54f"/><rect x="116" y="20" width="11" height="11" fill="#ffd54f"/><rect x="128" y="20" width="11" height="11" fill="#ffd54f"/><rect x="92" y="32" width="11" height="11" fill="#ffd54f"/><rect x="140" y="32" width="11" height="11" fill="#ffd54f"/><rect x="92" y="44" width="11" height="11" fill="#ffd54f"/><rect x="140" y="44" width="11" height="11" fill="#ffd54f"/><rect x="92" y="56" width="11" height="11" fill="#ffd54f"/><rect x="140" y="56" width="11" height="11" fill="#ffd54f"/><rect x="92" y="68" width="11" height="11" fill="#ffd54f"/><rect x="140" y="68" width="11" height="11" fill="#ffd54f"/><rect x="92" y="80" width="11" height="11" fill="#ffd54f"/><rect x="140" y="80" width="11" height="11" fill="#ffd54f"/><rect x="104" y="92" width="11" height="11" fill="#ffd54f"/><rect x="116" y="92" width="11" height="11" fill="#ffd54f"/><rect x="128" y="92" width="11" height="11" fill="#ffd54f"/>
  </g>

  <!-- N -->
  <g>
    <rect x="168" y="24" width="11" height="11" fill="#1b1e2b"/><rect x="216" y="24" width="11" height="11" fill="#1b1e2b"/><rect x="168" y="36" width="11" height="11" fill="#1b1e2b"/><rect x="180" y="36" width="11" height="11" fill="#1b1e2b"/><rect x="216" y="36" width="11" height="11" fill="#1b1e2b"/><rect x="168" y="48" width="11" height="11" fill="#1b1e2b"/><rect x="192" y="48" width="11" height="11" fill="#1b1e2b"/><rect x="216" y="48" width="11" height="11" fill="#1b1e2b"/><rect x="168" y="60" width="11" height="11" fill="#1b1e2b"/><rect x="204" y="60" width="11" height="11" fill="#1b1e2b"/><rect x="216" y="60" width="11" height="11" fill="#1b1e2b"/><rect x="168" y="72" width="11" height="11" fill="#1b1e2b"/><rect x="216" y="72" width="11" height="11" fill="#1b1e2b"/><rect x="168" y="84" width="11" height="11" fill="#1b1e2b"/><rect x="216" y="84" width="11" height="11" fill="#1b1e2b"/><rect x="168" y="96" width="11" height="11" fill="#1b1e2b"/><rect x="216" y="96" width="11" height="11" fill="#1b1e2b"/>
    <rect x="164" y="20" width="11" height="11" fill="#00e676"/><rect x="212" y="20" width="11" height="11" fill="#00e676"/><rect x="164" y="32" width="11" height="11" fill="#00e676"/><rect x="176" y="32" width="11" height="11" fill="#00e676"/><rect x="212" y="32" width="11" height="11" fill="#00e676"/><rect x="164" y="44" width="11" height="11" fill="#00e676"/><rect x="188" y="44" width="11" height="11" fill="#00e676"/><rect x="212" y="44" width="11" height="11" fill="#00e676"/><rect x="164" y="56" width="11" height="11" fill="#00e676"/><rect x="200" y="56" width="11" height="11" fill="#00e676"/><rect x="212" y="56" width="11" height="11" fill="#00e676"/><rect x="164" y="68" width="11" height="11" fill="#00e676"/><rect x="212" y="68" width="11" height="11" fill="#00e676"/><rect x="164" y="80" width="11" height="11" fill="#00e676"/><rect x="212" y="80" width="11" height="11" fill="#00e676"/><rect x="164" y="92" width="11" height="11" fill="#00e676"/><rect x="212" y="92" width="11" height="11" fill="#00e676"/>
  </g>

  <!-- A -->
  <g>
    <rect x="252" y="24" width="11" height="11" fill="#1b1e2b"/><rect x="264" y="24" width="11" height="11" fill="#1b1e2b"/><rect x="276" y="24" width="11" height="11" fill="#1b1e2b"/><rect x="240" y="36" width="11" height="11" fill="#1b1e2b"/><rect x="288" y="36" width="11" height="11" fill="#1b1e2b"/><rect x="240" y="48" width="11" height="11" fill="#1b1e2b"/><rect x="288" y="48" width="11" height="11" fill="#1b1e2b"/><rect x="240" y="60" width="11" height="11" fill="#1b1e2b"/><rect x="252" y="60" width="11" height="11" fill="#1b1e2b"/><rect x="264" y="60" width="11" height="11" fill="#1b1e2b"/><rect x="276" y="60" width="11" height="11" fill="#1b1e2b"/><rect x="288" y="60" width="11" height="11" fill="#1b1e2b"/><rect x="240" y="72" width="11" height="11" fill="#1b1e2b"/><rect x="288" y="72" width="11" height="11" fill="#1b1e2b"/><rect x="240" y="84" width="11" height="11" fill="#1b1e2b"/><rect x="288" y="84" width="11" height="11" fill="#1b1e2b"/><rect x="240" y="96" width="11" height="11" fill="#1b1e2b"/><rect x="288" y="96" width="11" height="11" fill="#1b1e2b"/>
    <rect x="248" y="20" width="11" height="11" fill="#40c4ff"/><rect x="260" y="20" width="11" height="11" fill="#40c4ff"/><rect x="272" y="20" width="11" height="11" fill="#40c4ff"/><rect x="236" y="32" width="11" height="11" fill="#40c4ff"/><rect x="284" y="32" width="11" height="11" fill="#40c4ff"/><rect x="236" y="44" width="11" height="11" fill="#40c4ff"/><rect x="284" y="44" width="11" height="11" fill="#40c4ff"/><rect x="236" y="56" width="11" height="11" fill="#40c4ff"/><rect x="248" y="56" width="11" height="11" fill="#40c4ff"/><rect x="260" y="56" width="11" height="11" fill="#40c4ff"/><rect x="272" y="56" width="11" height="11" fill="#40c4ff"/><rect x="284" y="56" width="11" height="11" fill="#40c4ff"/><rect x="236" y="68" width="11" height="11" fill="#40c4ff"/><rect x="284" y="68" width="11" height="11" fill="#40c4ff"/><rect x="236" y="80" width="11" height="11" fill="#40c4ff"/><rect x="284" y="80" width="11" height="11" fill="#40c4ff"/><rect x="236" y="92" width="11" height="11" fill="#40c4ff"/><rect x="284" y="92" width="11" height="11" fill="#40c4ff"/>
  </g>

  <!-- S -->
  <g>
    <rect x="324" y="24" width="11" height="11" fill="#1b1e2b"/><rect x="336" y="24" width="11" height="11" fill="#1b1e2b"/><rect x="348" y="24" width="11" height="11" fill="#1b1e2b"/><rect x="360" y="24" width="11" height="11" fill="#1b1e2b"/><rect x="312" y="36" width="11" height="11" fill="#1b1e2b"/><rect x="312" y="48" width="11" height="11" fill="#1b1e2b"/><rect x="324" y="60" width="11" height="11" fill="#1b1e2b"/><rect x="336" y="60" width="11" height="11" fill="#1b1e2b"/><rect x="348" y="60" width="11" height="11" fill="#1b1e2b"/><rect x="360" y="72" width="11" height="11" fill="#1b1e2b"/><rect x="360" y="84" width="11" height="11" fill="#1b1e2b"/><rect x="312" y="96" width="11" height="11" fill="#1b1e2b"/><rect x="324" y="96" width="11" height="11" fill="#1b1e2b"/><rect x="336" y="96" width="11" height="11" fill="#1b1e2b"/><rect x="348" y="96" width="11" height="11" fill="#1b1e2b"/>
    <rect x="320" y="20" width="11" height="11" fill="#b388ff"/><rect x="332" y="20" width="11" height="11" fill="#b388ff"/><rect x="344" y="20" width="11" height="11" fill="#b388ff"/><rect x="356" y="20" width="11" height="11" fill="#b388ff"/><rect x="308" y="32" width="11" height="11" fill="#b388ff"/><rect x="308" y="44" width="11" height="11" fill="#b388ff"/><rect x="320" y="56" width="11" height="11" fill="#b388ff"/><rect x="332" y="56" width="11" height="11" fill="#b388ff"/><rect x="344" y="56" width="11" height="11" fill="#b388ff"/><rect x="356" y="68" width="11" height="11" fill="#b388ff"/><rect x="356" y="80" width="11" height="11" fill="#b388ff"/><rect x="308" y="92" width="11" height="11" fill="#b388ff"/><rect x="320" y="92" width="11" height="11" fill="#b388ff"/><rect x="332" y="92" width="11" height="11" fill="#b388ff"/><rect x="344" y="92" width="11" height="11" fill="#b388ff"/>
  </g>

  <!-- PRESS START Text with Offset Drop Shadow -->
  <text x="195" y="123" font-family="ui-monospace,'Cascadia Mono',Menlo,Monaco,'Courier New',monospace" font-size="12" font-weight="bold" letter-spacing="6" text-anchor="middle" fill="#000000">· PRESS START ·</text>
  <text x="194" y="122" font-family="ui-monospace,'Cascadia Mono',Menlo,Monaco,'Courier New',monospace" font-size="12" font-weight="bold" letter-spacing="6" text-anchor="middle" fill="#78909c">· PRESS START ·</text>

  <!-- Scanline Overlay confined to the octagon -->
  <path d="M 14,8 H 374 L 380,14 V 134 L 374,140 H 14 L 8,134 V 14 Z" fill="url(#scanlines)" pointer-events="none" />
</svg>