<svg xmlns="http://www.w3.org/2000/svg" width="388" height="148" viewBox="0 0 388 148"><rect x="24" y="24" width="11" height="11" fill="#1b1e2b"/><rect x="36" y="24" width="11" height="11" fill="#1b1e2b"/><rect x="48" y="24" width="11" height="11" fill="#1b1e2b"/><rect x="60" y="24" width="11" height="11" fill="#1b1e2b"/><rect x="72" y="24" width="11" height="11" fill="#1b1e2b"/><rect x="72" y="36" width="11" height="11" fill="#1b1e2b"/><rect x="72" y="48" width="11" height="11" fill="#1b1e2b"/><rect x="72" y="60" width="11" height="11" fill="#1b1e2b"/><rect x="24" y="72" width="11" height="11" fill="#1b1e2b"/><rect x="72" y="72" width="11" height="11" fill="#1b1e2b"/><rect x="24" y="84" width="11" height="11" fill="#1b1e2b"/><rect x="72" y="84" width="11" height="11" fill="#1b1e2b"/><rect x="36" y="96" width="11" height="11" fill="#1b1e2b"/><rect x="48" y="96" width="11" height="11" fill="#1b1e2b"/><rect x="60" y="96" width="11" height="11" fill="#1b1e2b"/><rect x="20" y="20" width="11" height="11" fill="#ff5252"/><rect x="32" y="20" width="11" height="11" fill="#ff5252"/><rect x="44" y="20" width="11" height="11" fill="#ff5252"/><rect x="56" y="20" width="11" height="11" fill="#ff5252"/><rect x="68" y="20" width="11" height="11" fill="#ff5252"/><rect x="68" y="32" width="11" height="11" fill="#ff5252"/><rect x="68" y="44" width="11" height="11" fill="#ff5252"/><rect x="68" y="56" width="11" height="11" fill="#ff5252"/><rect x="20" y="68" width="11" height="11" fill="#ff5252"/><rect x="68" y="68" width="11" height="11" fill="#ff5252"/><rect x="20" y="80" width="11" height="11" fill="#ff5252"/><rect x="68" y="80" width="11" height="11" fill="#ff5252"/><rect x="32" y="92" width="11" height="11" fill="#ff5252"/><rect x="44" y="92" width="11" height="11" fill="#ff5252"/><rect x="56" y="92" width="11" height="11" fill="#ff5252"/><rect x="108" y="24" width="11" height="11" fill="#1b1e2b"/><rect x="120" y="24" width="11" height="11" fill="#1b1e2b"/><rect x="132" y="24" width="11" height="11" fill="#1b1e2b"/><rect x="96" y="36" width="11" height="11" fill="#1b1e2b"/><rect x="144" y="36" width="11" height="11" fill="#1b1e2b"/><rect x="96" y="48" width="11" height="11" fill="#1b1e2b"/><rect x="144" y="48" width="11" height="11" fill="#1b1e2b"/><rect x="96" y="60" width="11" height="11" fill="#1b1e2b"/><rect x="144" y="60" width="11" height="11" fill="#1b1e2b"/><rect x="96" y="72" width="11" height="11" fill="#1b1e2b"/><rect x="144" y="72" width="11" height="11" fill="#1b1e2b"/><rect x="96" y="84" width="11" height="11" fill="#1b1e2b"/><rect x="144" y="84" width="11" height="11" fill="#1b1e2b"/><rect x="108" y="96" width="11" height="11" fill="#1b1e2b"/><rect x="120" y="96" width="11" height="11" fill="#1b1e2b"/><rect x="132" y="96" width="11" height="11" fill="#1b1e2b"/><rect x="104" y="20" width="11" height="11" fill="#ffd54f"/><rect x="116" y="20" width="11" height="11" fill="#ffd54f"/><rect x="128" y="20" width="11" height="11" fill="#ffd54f"/><rect x="92" y="32" width="11" height="11" fill="#ffd54f"/><rect x="140" y="32" width="11" height="11" fill="#ffd54f"/><rect x="92" y="44" width="11" height="11" fill="#ffd54f"/><rect x="140" y="44" width="11" height="11" fill="#ffd54f"/><rect x="92" y="56" width="11" height="11" fill="#ffd54f"/><rect x="140" y="56" width="11" height="11" fill="#ffd54f"/><rect x="92" y="68" width="11" height="11" fill="#ffd54f"/><rect x="140" y="68" width="11" height="11" fill="#ffd54f"/><rect x="92" y="80" width="11" height="11" fill="#ffd54f"/><rect x="140" y="80" width="11" height="11" fill="#ffd54f"/><rect x="104" y="92" width="11" height="11" fill="#ffd54f"/><rect x="116" y="92" width="11" height="11" fill="#ffd54f"/><rect x="128" y="92" width="11" height="11" fill="#ffd54f"/><rect x="168" y="24" width="11" height="11" fill="#1b1e2b"/><rect x="216" y="24" width="11" height="11" fill="#1b1e2b"/><rect x="168" y="36" width="11" height="11" fill="#1b1e2b"/><rect x="180" y="36" width="11" height="11" fill="#1b1e2b"/><rect x="216" y="36" width="11" height="11" fill="#1b1e2b"/><rect x="168" y="48" width="11" height="11" fill="#1b1e2b"/><rect x="192" y="48" width="11" height="11" fill="#1b1e2b"/><rect x="216" y="48" width="11" height="11" fill="#1b1e2b"/><rect x="168" y="60" width="11" height="11" fill="#1b1e2b"/><rect x="204" y="60" width="11" height="11" fill="#1b1e2b"/><rect x="216" y="60" width="11" height="11" fill="#1b1e2b"/><rect x="168" y="72" width="11" height="11" fill="#1b1e2b"/><rect x="216" y="72" width="11" height="11" fill="#1b1e2b"/><rect x="168" y="84" width="11" height="11" fill="#1b1e2b"/><rect x="216" y="84" width="11" height="11" fill="#1b1e2b"/><rect x="168" y="96" width="11" height="11" fill="#1b1e2b"/><rect x="216" y="96" width="11" height="11" fill="#1b1e2b"/><rect x="164" y="20" width="11" height="11" fill="#00e676"/><rect x="212" y="20" width="11" height="11" fill="#00e676"/><rect x="164" y="32" width="11" height="11" fill="#00e676"/><rect x="176" y="32" width="11" height="11" fill="#00e676"/><rect x="212" y="32" width="11" height="11" fill="#00e676"/><rect x="164" y="44" width="11" height="11" fill="#00e676"/><rect x="188" y="44" width="11" height="11" fill="#00e676"/><rect x="212" y="44" width="11" height="11" fill="#00e676"/><rect x="164" y="56" width="11" height="11" fill="#00e676"/><rect x="200" y="56" width="11" height="11" fill="#00e676"/><rect x="212" y="56" width="11" height="11" fill="#00e676"/><rect x="164" y="68" width="11" height="11" fill="#00e676"/><rect x="212" y="68" width="11" height="11" fill="#00e676"/><rect x="164" y="80" width="11" height="11" fill="#00e676"/><rect x="212" y="80" width="11" height="11" fill="#00e676"/><rect x="164" y="92" width="11" height="11" fill="#00e676"/><rect x="212" y="92" width="11" height="11" fill="#00e676"/><rect x="252" y="24" width="11" height="11" fill="#1b1e2b"/><rect x="264" y="24" width="11" height="11" fill="#1b1e2b"/><rect x="276" y="24" width="11" height="11" fill="#1b1e2b"/><rect x="240" y="36" width="11" height="11" fill="#1b1e2b"/><rect x="288" y="36" width="11" height="11" fill="#1b1e2b"/><rect x="240" y="48" width="11" height="11" fill="#1b1e2b"/><rect x="288" y="48" width="11" height="11" fill="#1b1e2b"/><rect x="240" y="60" width="11" height="11" fill="#1b1e2b"/><rect x="252" y="60" width="11" height="11" fill="#1b1e2b"/><rect x="264" y="60" width="11" height="11" fill="#1b1e2b"/><rect x="276" y="60" width="11" height="11" fill="#1b1e2b"/><rect x="288" y="60" width="11" height="11" fill="#1b1e2b"/><rect x="240" y="72" width="11" height="11" fill="#1b1e2b"/><rect x="288" y="72" width="11" height="11" fill="#1b1e2b"/><rect x="240" y="84" width="11" height="11" fill="#1b1e2b"/><rect x="288" y="84" width="11" height="11" fill="#1b1e2b"/><rect x="240" y="96" width="11" height="11" fill="#1b1e2b"/><rect x="288" y="96" width="11" height="11" fill="#1b1e2b"/><rect x="248" y="20" width="11" height="11" fill="#40c4ff"/><rect x="260" y="20" width="11" height="11" fill="#40c4ff"/><rect x="272" y="20" width="11" height="11" fill="#40c4ff"/><rect x="236" y="32" width="11" height="11" fill="#40c4ff"/><rect x="284" y="32" width="11" height="11" fill="#40c4ff"/><rect x="236" y="44" width="11" height="11" fill="#40c4ff"/><rect x="284" y="44" width="11" height="11" fill="#40c4ff"/><rect x="236" y="56" width="11" height="11" fill="#40c4ff"/><rect x="248" y="56" width="11" height="11" fill="#40c4ff"/><rect x="260" y="56" width="11" height="11" fill="#40c4ff"/><rect x="272" y="56" width="11" height="11" fill="#40c4ff"/><rect x="284" y="56" width="11" height="11" fill="#40c4ff"/><rect x="236" y="68" width="11" height="11" fill="#40c4ff"/><rect x="284" y="68" width="11" height="11" fill="#40c4ff"/><rect x="236" y="80" width="11" height="11" fill="#40c4ff"/><rect x="284" y="80" width="11" height="11" fill="#40c4ff"/><rect x="236" y="92" width="11" height="11" fill="#40c4ff"/><rect x="284" y="92" width="11" height="11" fill="#40c4ff"/><rect x="324" y="24" width="11" height="11" fill="#1b1e2b"/><rect x="336" y="24" width="11" height="11" fill="#1b1e2b"/><rect x="348" y="24" width="11" height="11" fill="#1b1e2b"/><rect x="360" y="24" width="11" height="11" fill="#1b1e2b"/><rect x="312" y="36" width="11" height="11" fill="#1b1e2b"/><rect x="312" y="48" width="11" height="11" fill="#1b1e2b"/><rect x="324" y="60" width="11" height="11" fill="#1b1e2b"/><rect x="336" y="60" width="11" height="11" fill="#1b1e2b"/><rect x="348" y="60" width="11" height="11" fill="#1b1e2b"/><rect x="360" y="72" width="11" height="11" fill="#1b1e2b"/><rect x="360" y="84" width="11" height="11" fill="#1b1e2b"/><rect x="312" y="96" width="11" height="11" fill="#1b1e2b"/><rect x="324" y="96" width="11" height="11" fill="#1b1e2b"/><rect x="336" y="96" width="11" height="11" fill="#1b1e2b"/><rect x="348" y="96" width="11" height="11" fill="#1b1e2b"/><rect x="320" y="20" width="11" height="11" fill="#b388ff"/><rect x="332" y="20" width="11" height="11" fill="#b388ff"/><rect x="344" y="20" width="11" height="11" fill="#b388ff"/><rect x="356" y="20" width="11" height="11" fill="#b388ff"/><rect x="308" y="32" width="11" height="11" fill="#b388ff"/><rect x="308" y="44" width="11" height="11" fill="#b388ff"/><rect x="320" y="56" width="11" height="11" fill="#b388ff"/><rect x="332" y="56" width="11" height="11" fill="#b388ff"/><rect x="344" y="56" width="11" height="11" fill="#b388ff"/><rect x="356" y="68" width="11" height="11" fill="#b388ff"/><rect x="356" y="80" width="11" height="11" fill="#b388ff"/><rect x="308" y="92" width="11" height="11" fill="#b388ff"/><rect x="320" y="92" width="11" height="11" fill="#b388ff"/><rect x="332" y="92" width="11" height="11" fill="#b388ff"/><rect x="344" y="92" width="11" height="11" fill="#b388ff"/><text x="194.0" y="134" font-family="ui-monospace,'Cascadia Mono',Menlo,Monaco,'Courier New',monospace" font-size="13" letter-spacing="6" text-anchor="middle" fill="#78909c">· PRESS START ·</text></svg>