<svg xmlns="http://www.w3.org/2000/svg" width="354" height="360" viewBox="0 0 354 360"><rect x="0" y="0" width="354" height="360" fill="#0f111a"/><rect x="4" y="4" width="346" height="6" fill="#e6e6e6"/><rect x="4" y="350" width="346" height="6" fill="#e6e6e6"/><rect x="4" y="4" width="6" height="352" fill="#e6e6e6"/><rect x="344" y="4" width="6" height="352" fill="#e6e6e6"/><rect x="0" y="0" width="10" height="10" fill="#0f111a"/><rect x="0" y="350" width="10" height="10" fill="#0f111a"/><rect x="344" y="0" width="10" height="10" fill="#0f111a"/><rect x="344" y="350" width="10" height="10" fill="#0f111a"/><rect x="10" y="10" width="4" height="4" fill="#e6e6e6"/><rect x="340" y="10" width="4" height="4" fill="#e6e6e6"/><rect x="10" y="346" width="4" height="4" fill="#e6e6e6"/><rect x="340" y="346" width="4" height="4" fill="#e6e6e6"/><rect x="89.0" y="0" width="176" height="20" fill="#0f111a"/><text x="177.0" y="15" font-family="ui-monospace,'Cascadia Mono',Menlo,Monaco,'Courier New',monospace" font-size="15" font-weight="bold" letter-spacing="2" text-anchor="middle" fill="#ffd54f">PLAYER PROFILE</text><text x="177.0" y="38" font-family="ui-monospace,'Cascadia Mono',Menlo,Monaco,'Courier New',monospace" font-size="10" text-anchor="middle" fill="#78909c">(oh, um. hi. didn&apos;t expect visitors)</text><text x="28" y="64" font-family="ui-monospace,'Cascadia Mono',Menlo,Monaco,'Courier New',monospace" font-size="13" font-weight="bold" text-anchor="start" fill="#00e676">PLAYER 1</text><text x="44" y="82" font-family="ui-monospace,'Cascadia Mono',Menlo,Monaco,'Courier New',monospace" font-size="13" font-weight="normal" text-anchor="start" fill="#eceff1">JONAS · &quot;just a 🍵&quot; really</text><text x="28" y="106" font-family="ui-monospace,'Cascadia Mono',Menlo,Monaco,'Courier New',monospace" font-size="13" font-weight="bold" text-anchor="start" fill="#00e676">CLASS</text><text x="44" y="124" font-family="ui-monospace,'Cascadia Mono',Menlo,Monaco,'Courier New',monospace" font-size="13" font-weight="normal" text-anchor="start" fill="#eceff1">LOW-MINDED DEVELOPER ٩◔̯◔۶</text><text x="28" y="148" font-family="ui-monospace,'Cascadia Mono',Menlo,Monaco,'Courier New',monospace" font-size="13" font-weight="bold" text-anchor="start" fill="#00e676">GUILD</text><text x="44" y="166" font-family="ui-monospace,'Cascadia Mono',Menlo,Monaco,'Courier New',monospace" font-size="13" font-weight="normal" text-anchor="start" fill="#eceff1">IfelseDotOne · 🌎 EARTH-616</text><text x="28" y="190" font-family="ui-monospace,'Cascadia Mono',Menlo,Monaco,'Courier New',monospace" font-size="13" font-weight="bold" text-anchor="start" fill="#00e676">ALIGNMENT</text><text x="44" y="208" font-family="ui-monospace,'Cascadia Mono',Menlo,Monaco,'Courier New',monospace" font-size="13" font-weight="normal" text-anchor="start" fill="#eceff1">❤️ opensource · fixing own bugs</text><text x="28" y="238" font-family="ui-monospace,'Cascadia Mono',Menlo,Monaco,'Courier New',monospace" font-size="13" font-weight="bold" text-anchor="start" fill="#ff5252">HP</text><rect x="70" y="228" width="14" height="12" fill="#ff5252"/><rect x="87" y="228" width="14" height="12" fill="#ff5252"/><rect x="104" y="228" width="14" height="12" fill="#ff5252"/><rect x="121" y="228" width="14" height="12" fill="#ff5252"/><rect x="138" y="228" width="14" height="12" fill="#ff5252"/><rect x="155" y="228" width="14" height="12" fill="#ff5252"/><rect x="172" y="228" width="14" height="12" fill="#232735"/><rect x="189" y="228" width="14" height="12" fill="#232735"/><rect x="206" y="228" width="14" height="12" fill="#232735"/><rect x="223" y="228" width="14" height="12" fill="#232735"/><text x="245" y="238" font-family="ui-monospace,'Cascadia Mono',Menlo,Monaco,'Courier New',monospace" font-size="10" font-weight="normal" text-anchor="start" fill="#78909c">60/100 · tea</text><text x="28" y="266" font-family="ui-monospace,'Cascadia Mono',Menlo,Monaco,'Courier New',monospace" font-size="13" font-weight="bold" text-anchor="start" fill="#40c4ff">MP</text><rect x="70" y="256" width="14" height="12" fill="#40c4ff"/><rect x="87" y="256" width="14" height="12" fill="#40c4ff"/><rect x="104" y="256" width="14" height="12" fill="#40c4ff"/><rect x="121" y="256" width="14" height="12" fill="#40c4ff"/><rect x="138" y="256" width="14" height="12" fill="#232735"/><rect x="155" y="256" width="14" height="12" fill="#232735"/><rect x="172" y="256" width="14" height="12" fill="#232735"/><rect x="189" y="256" width="14" height="12" fill="#232735"/><rect x="206" y="256" width="14" height="12" fill="#232735"/><rect x="223" y="256" width="14" height="12" fill="#232735"/><text x="245" y="266" font-family="ui-monospace,'Cascadia Mono',Menlo,Monaco,'Courier New',monospace" font-size="10" font-weight="normal" text-anchor="start" fill="#78909c">40/100 · shy</text><text x="28" y="294" font-family="ui-monospace,'Cascadia Mono',Menlo,Monaco,'Courier New',monospace" font-size="13" font-weight="bold" text-anchor="start" fill="#00e676">GRIND</text><text x="44" y="312" font-family="ui-monospace,'Cascadia Mono',Menlo,Monaco,'Courier New',monospace" font-size="12" font-weight="normal" text-anchor="start" fill="#eceff1">🤖 AI area (slowly. very slowly.)</text></svg>