<svg xmlns="http://www.w3.org/2000/svg" width="720" height="268" viewBox="0 0 720 268"><rect x="0" y="0" width="720" height="268" fill="#0f111a"/><rect x="4" y="4" width="712" height="6" fill="#e6e6e6"/><rect x="4" y="258" width="712" height="6" fill="#e6e6e6"/><rect x="4" y="4" width="6" height="260" fill="#e6e6e6"/><rect x="710" y="4" width="6" height="260" fill="#e6e6e6"/><rect x="0" y="0" width="10" height="10" fill="#0f111a"/><rect x="0" y="258" width="10" height="10" fill="#0f111a"/><rect x="710" y="0" width="10" height="10" fill="#0f111a"/><rect x="710" y="258" width="10" height="10" fill="#0f111a"/><rect x="10" y="10" width="4" height="4" fill="#e6e6e6"/><rect x="706" y="10" width="4" height="4" fill="#e6e6e6"/><rect x="10" y="254" width="4" height="4" fill="#e6e6e6"/><rect x="706" y="254" width="4" height="4" fill="#e6e6e6"/><rect x="272.0" y="0" width="176" height="20" fill="#0f111a"/><text x="360.0" y="15" font-family="ui-monospace,'Cascadia Mono',Menlo,Monaco,'Courier New',monospace" font-size="15" font-weight="bold" letter-spacing="2" text-anchor="middle" fill="#ffd54f">PLAYER PROFILE</text><text x="360.0" y="38" font-family="ui-monospace,'Cascadia Mono',Menlo,Monaco,'Courier New',monospace" font-size="11" text-anchor="middle" fill="#78909c">(oh, um. hi. didn&apos;t expect visitors)</text><text x="40" y="68" font-family="ui-monospace,'Cascadia Mono',Menlo,Monaco,'Courier New',monospace" font-size="14" font-weight="bold" text-anchor="start" fill="#00e676">PLAYER 1</text><text x="150" y="68" font-family="ui-monospace,'Cascadia Mono',Menlo,Monaco,'Courier New',monospace" font-size="14" font-weight="normal" text-anchor="start" fill="#eceff1">..... JONAS · &quot;just a 🍵&quot; really</text><text x="40" y="95" font-family="ui-monospace,'Cascadia Mono',Menlo,Monaco,'Courier New',monospace" font-size="14" font-weight="bold" text-anchor="start" fill="#00e676">CLASS</text><text x="150" y="95" font-family="ui-monospace,'Cascadia Mono',Menlo,Monaco,'Courier New',monospace" font-size="14" font-weight="normal" text-anchor="start" fill="#eceff1">..... LOW-MINDED DEVELOPER ٩◔̯◔۶</text><text x="40" y="122" font-family="ui-monospace,'Cascadia Mono',Menlo,Monaco,'Courier New',monospace" font-size="14" font-weight="bold" text-anchor="start" fill="#00e676">GUILD</text><text x="150" y="122" font-family="ui-monospace,'Cascadia Mono',Menlo,Monaco,'Courier New',monospace" font-size="14" font-weight="normal" text-anchor="start" fill="#eceff1">..... IfelseDotOne (population: mostly me) · 🌎 EARTH-616</text><text x="40" y="149" font-family="ui-monospace,'Cascadia Mono',Menlo,Monaco,'Courier New',monospace" font-size="14" font-weight="bold" text-anchor="start" fill="#00e676">ALIGNMENT</text><text x="150" y="149" font-family="ui-monospace,'Cascadia Mono',Menlo,Monaco,'Courier New',monospace" font-size="14" font-weight="normal" text-anchor="start" fill="#eceff1">..... ❤️ opensource · quietly fixing bugs i quietly introduced</text><text x="40" y="178" font-family="ui-monospace,'Cascadia Mono',Menlo,Monaco,'Courier New',monospace" font-size="14" font-weight="bold" text-anchor="start" fill="#ff5252">HP</text><rect x="150" y="167" width="14" height="12" fill="#ff5252"/><rect x="167" y="167" width="14" height="12" fill="#ff5252"/><rect x="184" y="167" width="14" height="12" fill="#ff5252"/><rect x="201" y="167" width="14" height="12" fill="#ff5252"/><rect x="218" y="167" width="14" height="12" fill="#ff5252"/><rect x="235" y="167" width="14" height="12" fill="#ff5252"/><rect x="252" y="167" width="14" height="12" fill="#232735"/><rect x="269" y="167" width="14" height="12" fill="#232735"/><rect x="286" y="167" width="14" height="12" fill="#232735"/><rect x="303" y="167" width="14" height="12" fill="#232735"/><text x="340" y="178" font-family="ui-monospace,'Cascadia Mono',Menlo,Monaco,'Courier New',monospace" font-size="12" font-weight="normal" text-anchor="start" fill="#78909c">60/100 · runs on tea</text><text x="40" y="205" font-family="ui-monospace,'Cascadia Mono',Menlo,Monaco,'Courier New',monospace" font-size="14" font-weight="bold" text-anchor="start" fill="#40c4ff">MP</text><rect x="150" y="194" width="14" height="12" fill="#40c4ff"/><rect x="167" y="194" width="14" height="12" fill="#40c4ff"/><rect x="184" y="194" width="14" height="12" fill="#40c4ff"/><rect x="201" y="194" width="14" height="12" fill="#40c4ff"/><rect x="218" y="194" width="14" height="12" fill="#232735"/><rect x="235" y="194" width="14" height="12" fill="#232735"/><rect x="252" y="194" width="14" height="12" fill="#232735"/><rect x="269" y="194" width="14" height="12" fill="#232735"/><rect x="286" y="194" width="14" height="12" fill="#232735"/><rect x="303" y="194" width="14" height="12" fill="#232735"/><text x="340" y="205" font-family="ui-monospace,'Cascadia Mono',Menlo,Monaco,'Courier New',monospace" font-size="12" font-weight="normal" text-anchor="start" fill="#78909c">40/100 · social mana, low</text><text x="40" y="230" font-family="ui-monospace,'Cascadia Mono',Menlo,Monaco,'Courier New',monospace" font-size="14" font-weight="bold" text-anchor="start" fill="#00e676">GRIND</text><text x="150" y="230" font-family="ui-monospace,'Cascadia Mono',Menlo,Monaco,'Courier New',monospace" font-size="14" font-weight="normal" text-anchor="start" fill="#eceff1">..... 🤖 practice more on AI area (slowly. very slowly.)</text></svg>