<svg xmlns="http://www.w3.org/2000/svg" width="354" height="360" viewBox="0 0 354 360">
  <defs>
    <!-- Green Block (LV.7) -->
    <g id="bg">
      <rect x="0" y="0" width="11" height="10" fill="#00e676"/>
      <rect x="0" y="0" width="11" height="1" fill="#69f0ae"/>
      <rect x="0" y="0" width="1" height="10" fill="#69f0ae"/>
      <rect x="0" y="9" width="11" height="1" fill="#00c853"/>
      <rect x="10" y="0" width="1" height="10" fill="#00c853"/>
    </g>
    <!-- Blue Block (LV.5-6) -->
    <g id="bb">
      <rect x="0" y="0" width="11" height="10" fill="#40c4ff"/>
      <rect x="0" y="0" width="11" height="1" fill="#80d8ff"/>
      <rect x="0" y="0" width="1" height="10" fill="#80d8ff"/>
      <rect x="0" y="9" width="11" height="1" fill="#00b0ff"/>
      <rect x="10" y="0" width="1" height="10" fill="#00b0ff"/>
    </g>
    <!-- Yellow Block (LV.3) -->
    <g id="by">
      <rect x="0" y="0" width="11" height="10" fill="#ffd54f"/>
      <rect x="0" y="0" width="11" height="1" fill="#ffe082"/>
      <rect x="0" y="0" width="1" height="10" fill="#ffe082"/>
      <rect x="0" y="9" width="11" height="1" fill="#ffca28"/>
      <rect x="10" y="0" width="1" height="10" fill="#ffca28"/>
    </g>
    <!-- Red Block (LV.2) -->
    <g id="br">
      <rect x="0" y="0" width="11" height="10" fill="#ff5252"/>
      <rect x="0" y="0" width="11" height="1" fill="#ff8a80"/>
      <rect x="0" y="0" width="1" height="10" fill="#ff8a80"/>
      <rect x="0" y="9" width="11" height="1" fill="#ff1744"/>
      <rect x="10" y="0" width="1" height="10" fill="#ff1744"/>
    </g>
    <!-- Empty Block -->
    <g id="be">
      <rect x="0" y="0" width="11" height="10" fill="#1b1d28"/>
      <rect x="0" y="0" width="11" height="1" fill="#2d3142"/>
      <rect x="0" y="0" width="1" height="10" fill="#2d3142"/>
      <rect x="0" y="9" width="11" height="1" fill="#0c0d14"/>
      <rect x="10" y="0" width="1" height="10" fill="#0c0d14"/>
    </g>
    <!-- Scanlines -->
    <pattern id="scanlines" width="4" height="4" patternUnits="userSpaceOnUse">
      <rect width="4" height="2" fill="#000000" fill-opacity="0.08" />
    </pattern>
    <!-- Vignette -->
    <radialGradient id="vignette" cx="50%" cy="50%" r="75%">
      <stop offset="0%" stop-color="#0f111a" stop-opacity="0"/>
      <stop offset="80%" stop-color="#07080d" stop-opacity="0.4"/>
      <stop offset="100%" stop-color="#000000" stop-opacity="0.8"/>
    </radialGradient>
  </defs>

  <!-- Octagon Background Fill & Border Stroke (Outer corners are transparent) -->
  <path d="M 14,8 H 340 L 346,14 V 346 L 340,352 H 14 L 8,346 V 14 Z" fill="#0f111a" stroke="#e6e6e6" stroke-width="2" />
  
  <!-- Screen glow vignette confined to the octagon -->
  <path d="M 14,8 H 340 L 346,14 V 346 L 340,352 H 14 L 8,346 V 14 Z" fill="url(#vignette)" />

  <!-- Inner Octagon Frame Border -->
  <path d="M 17,12 H 337 L 342,17 V 343 L 337,348 H 17 L 12,343 V 17 Z" fill="none" stroke="#78909c" stroke-width="1" opacity="0.4" />

  <!-- Corner details (crosses in corner) -->
  <path d="M 14,14 h 4 M 16,12 v 4" stroke="#e6e6e6" stroke-width="1" />
  <path d="M 336,14 h 4 M 338,12 v 4" stroke="#e6e6e6" stroke-width="1" />
  <path d="M 14,346 h 4 M 16,344 v 4" stroke="#e6e6e6" stroke-width="1" />
  <path d="M 336,346 h 4 M 338,344 v 4" stroke="#e6e6e6" stroke-width="1" />

  <!-- Title Plate -->
  <path d="M 111,2 H 243 L 247,6 V 20 H 107 V 6 L 111,2 Z" fill="#0f111a" stroke="#ffd54f" stroke-width="2" />
  <text x="178" y="16" font-family="ui-monospace,'Cascadia Mono',Menlo,Monaco,'Courier New',monospace" font-size="14" font-weight="bold" letter-spacing="2" text-anchor="middle" fill="#000000">SKILL TREE</text>
  <text x="177" y="15" font-family="ui-monospace,'Cascadia Mono',Menlo,Monaco,'Courier New',monospace" font-size="14" font-weight="bold" letter-spacing="2" text-anchor="middle" fill="#ffd54f">SKILL TREE</text>

  <!-- Subtitle -->
  <text x="177" y="38" font-family="ui-monospace,'Cascadia Mono',Menlo,Monaco,'Courier New',monospace" font-size="10" font-weight="bold" text-anchor="middle" fill="#78909c">(self-reported, probably inflated)</text>

  <!-- ==================== SKILL ROWS ==================== -->
  
  <!-- Row 1: Java/Kotlin/Spring -->
  <text x="29" y="69" font-family="ui-monospace,'Cascadia Mono',Menlo,Monaco,'Courier New',monospace" font-size="11" font-weight="bold" text-anchor="start" fill="#000000">JAVA/KOTLIN/SPRING</text>
  <text x="28" y="68" font-family="ui-monospace,'Cascadia Mono',Menlo,Monaco,'Courier New',monospace" font-size="11" font-weight="bold" text-anchor="start" fill="#eceff1">JAVA/KOTLIN/SPRING</text>
  <g>
    <use href="#bg" x="170" y="58"/><use href="#bg" x="183" y="58"/><use href="#bg" x="196" y="58"/><use href="#bg" x="209" y="58"/><use href="#bg" x="222" y="58"/><use href="#bg" x="235" y="58"/><use href="#bg" x="248" y="58"/><use href="#be" x="261" y="58"/><use href="#be" x="274" y="58"/><use href="#be" x="287" y="58"/>
  </g>
  <text x="305" y="69" font-family="ui-monospace,'Cascadia Mono',Menlo,Monaco,'Courier New',monospace" font-size="11" font-weight="bold" text-anchor="start" fill="#000000">LV.7</text>
  <text x="304" y="68" font-family="ui-monospace,'Cascadia Mono',Menlo,Monaco,'Courier New',monospace" font-size="11" font-weight="bold" text-anchor="start" fill="#00e676">LV.7</text>

  <!-- Row 2: Python/FastAPI -->
  <text x="29" y="97" font-family="ui-monospace,'Cascadia Mono',Menlo,Monaco,'Courier New',monospace" font-size="11" font-weight="bold" text-anchor="start" fill="#000000">PYTHON/FASTAPI</text>
  <text x="28" y="96" font-family="ui-monospace,'Cascadia Mono',Menlo,Monaco,'Courier New',monospace" font-size="11" font-weight="bold" text-anchor="start" fill="#eceff1">PYTHON/FASTAPI</text>
  <g>
    <use href="#bg" x="170" y="86"/><use href="#bg" x="183" y="86"/><use href="#bg" x="196" y="86"/><use href="#bg" x="209" y="86"/><use href="#bg" x="222" y="86"/><use href="#bg" x="235" y="86"/><use href="#bg" x="248" y="86"/><use href="#be" x="261" y="86"/><use href="#be" x="274" y="86"/><use href="#be" x="287" y="86"/>
  </g>
  <text x="305" y="97" font-family="ui-monospace,'Cascadia Mono',Menlo,Monaco,'Courier New',monospace" font-size="11" font-weight="bold" text-anchor="start" fill="#000000">LV.7</text>
  <text x="304" y="96" font-family="ui-monospace,'Cascadia Mono',Menlo,Monaco,'Courier New',monospace" font-size="11" font-weight="bold" text-anchor="start" fill="#00e676">LV.7</text>

  <!-- Row 3: JS/TS/Node -->
  <text x="29" y="125" font-family="ui-monospace,'Cascadia Mono',Menlo,Monaco,'Courier New',monospace" font-size="11" font-weight="bold" text-anchor="start" fill="#000000">JS/TS/NODE</text>
  <text x="28" y="124" font-family="ui-monospace,'Cascadia Mono',Menlo,Monaco,'Courier New',monospace" font-size="11" font-weight="bold" text-anchor="start" fill="#eceff1">JS/TS/NODE</text>
  <g>
    <use href="#bg" x="170" y="114"/><use href="#bg" x="183" y="114"/><use href="#bg" x="196" y="114"/><use href="#bg" x="209" y="114"/><use href="#bg" x="222" y="114"/><use href="#bg" x="235" y="114"/><use href="#bg" x="248" y="114"/><use href="#be" x="261" y="114"/><use href="#be" x="274" y="114"/><use href="#be" x="287" y="114"/>
  </g>
  <text x="305" y="125" font-family="ui-monospace,'Cascadia Mono',Menlo,Monaco,'Courier New',monospace" font-size="11" font-weight="bold" text-anchor="start" fill="#000000">LV.7</text>
  <text x="304" y="124" font-family="ui-monospace,'Cascadia Mono',Menlo,Monaco,'Courier New',monospace" font-size="11" font-weight="bold" text-anchor="start" fill="#00e676">LV.7</text>

  <!-- Row 4: Vue/Nuxt -->
  <text x="29" y="153" font-family="ui-monospace,'Cascadia Mono',Menlo,Monaco,'Courier New',monospace" font-size="11" font-weight="bold" text-anchor="start" fill="#000000">VUE/NUXT</text>
  <text x="28" y="152" font-family="ui-monospace,'Cascadia Mono',Menlo,Monaco,'Courier New',monospace" font-size="11" font-weight="bold" text-anchor="start" fill="#eceff1">VUE/NUXT</text>
  <g>
    <use href="#bb" x="170" y="142"/><use href="#bb" x="183" y="142"/><use href="#bb" x="196" y="142"/><use href="#bb" x="209" y="142"/><use href="#bb" x="222" y="142"/><use href="#bb" x="235" y="142"/><use href="#be" x="248" y="142"/><use href="#be" x="261" y="142"/><use href="#be" x="274" y="142"/><use href="#be" x="287" y="142"/>
  </g>
  <text x="305" y="153" font-family="ui-monospace,'Cascadia Mono',Menlo,Monaco,'Courier New',monospace" font-size="11" font-weight="bold" text-anchor="start" fill="#000000">LV.6</text>
  <text x="304" y="152" font-family="ui-monospace,'Cascadia Mono',Menlo,Monaco,'Courier New',monospace" font-size="11" font-weight="bold" text-anchor="start" fill="#40c4ff">LV.6</text>

  <!-- Row 5: Golang -->
  <text x="29" y="181" font-family="ui-monospace,'Cascadia Mono',Menlo,Monaco,'Courier New',monospace" font-size="11" font-weight="bold" text-anchor="start" fill="#000000">GOLANG</text>
  <text x="28" y="180" font-family="ui-monospace,'Cascadia Mono',Menlo,Monaco,'Courier New',monospace" font-size="11" font-weight="bold" text-anchor="start" fill="#eceff1">GOLANG</text>
  <g>
    <use href="#bb" x="170" y="170"/><use href="#bb" x="183" y="170"/><use href="#bb" x="196" y="170"/><use href="#bb" x="209" y="170"/><use href="#bb" x="222" y="170"/><use href="#be" x="235" y="170"/><use href="#be" x="248" y="170"/><use href="#be" x="261" y="170"/><use href="#be" x="274" y="170"/><use href="#be" x="287" y="170"/>
  </g>
  <text x="305" y="181" font-family="ui-monospace,'Cascadia Mono',Menlo,Monaco,'Courier New',monospace" font-size="11" font-weight="bold" text-anchor="start" fill="#000000">LV.5</text>
  <text x="304" y="180" font-family="ui-monospace,'Cascadia Mono',Menlo,Monaco,'Courier New',monospace" font-size="11" font-weight="bold" text-anchor="start" fill="#40c4ff">LV.5</text>

  <!-- Row 6: PHP/Laravel -->
  <text x="29" y="209" font-family="ui-monospace,'Cascadia Mono',Menlo,Monaco,'Courier New',monospace" font-size="11" font-weight="bold" text-anchor="start" fill="#000000">PHP/LARAVEL</text>
  <text x="28" y="208" font-family="ui-monospace,'Cascadia Mono',Menlo,Monaco,'Courier New',monospace" font-size="11" font-weight="bold" text-anchor="start" fill="#eceff1">PHP/LARAVEL</text>
  <g>
    <use href="#bb" x="170" y="198"/><use href="#bb" x="183" y="198"/><use href="#bb" x="196" y="198"/><use href="#bb" x="209" y="198"/><use href="#bb" x="222" y="198"/><use href="#be" x="235" y="198"/><use href="#be" x="248" y="198"/><use href="#be" x="261" y="198"/><use href="#be" x="274" y="198"/><use href="#be" x="287" y="198"/>
  </g>
  <text x="305" y="209" font-family="ui-monospace,'Cascadia Mono',Menlo,Monaco,'Courier New',monospace" font-size="11" font-weight="bold" text-anchor="start" fill="#000000">LV.5</text>
  <text x="304" y="208" font-family="ui-monospace,'Cascadia Mono',Menlo,Monaco,'Courier New',monospace" font-size="11" font-weight="bold" text-anchor="start" fill="#40c4ff">LV.5</text>

  <!-- Row 7: Dart/Flutter -->
  <text x="29" y="237" font-family="ui-monospace,'Cascadia Mono',Menlo,Monaco,'Courier New',monospace" font-size="11" font-weight="bold" text-anchor="start" fill="#000000">DART/FLUTTER</text>
  <text x="28" y="236" font-family="ui-monospace,'Cascadia Mono',Menlo,Monaco,'Courier New',monospace" font-size="11" font-weight="bold" text-anchor="start" fill="#eceff1">DART/FLUTTER</text>
  <g>
    <use href="#by" x="170" y="226"/><use href="#by" x="183" y="226"/><use href="#by" x="196" y="226"/><use href="#be" x="209" y="226"/><use href="#be" x="222" y="226"/><use href="#be" x="235" y="226"/><use href="#be" x="248" y="226"/><use href="#be" x="261" y="226"/><use href="#be" x="274" y="226"/><use href="#be" x="287" y="226"/>
  </g>
  <text x="305" y="237" font-family="ui-monospace,'Cascadia Mono',Menlo,Monaco,'Courier New',monospace" font-size="11" font-weight="bold" text-anchor="start" fill="#000000">LV.3</text>
  <text x="304" y="236" font-family="ui-monospace,'Cascadia Mono',Menlo,Monaco,'Courier New',monospace" font-size="11" font-weight="bold" text-anchor="start" fill="#ffd54f">LV.3</text>

  <!-- Row 8: Swift -->
  <text x="29" y="265" font-family="ui-monospace,'Cascadia Mono',Menlo,Monaco,'Courier New',monospace" font-size="11" font-weight="bold" text-anchor="start" fill="#000000">SWIFT</text>
  <text x="28" y="264" font-family="ui-monospace,'Cascadia Mono',Menlo,Monaco,'Courier New',monospace" font-size="11" font-weight="bold" text-anchor="start" fill="#eceff1">SWIFT</text>
  <g>
    <use href="#br" x="170" y="254"/><use href="#br" x="183" y="254"/><use href="#be" x="196" y="254"/><use href="#be" x="209" y="254"/><use href="#be" x="222" y="254"/><use href="#be" x="235" y="254"/><use href="#be" x="248" y="254"/><use href="#be" x="261" y="254"/><use href="#be" x="274" y="254"/><use href="#be" x="287" y="254"/>
  </g>
  <text x="305" y="265" font-family="ui-monospace,'Cascadia Mono',Menlo,Monaco,'Courier New',monospace" font-size="11" font-weight="bold" text-anchor="start" fill="#000000">LV.2</text>
  <text x="304" y="264" font-family="ui-monospace,'Cascadia Mono',Menlo,Monaco,'Courier New',monospace" font-size="11" font-weight="bold" text-anchor="start" fill="#ff5252">LV.2</text>

  <!-- Divider Line -->
  <line x1="28" y1="282" x2="326" y2="282" stroke="#78909c" stroke-width="1" opacity="0.3" stroke-dasharray="2,2" />

  <!-- Bottom Items -->
  <text x="29" y="297" font-family="ui-monospace,'Cascadia Mono',Menlo,Monaco,'Courier New',monospace" font-size="10" font-weight="bold" text-anchor="start" fill="#000000">ITEMS: 🐧 Linux · 🐳 Docker</text>
  <text x="28" y="296" font-family="ui-monospace,'Cascadia Mono',Menlo,Monaco,'Courier New',monospace" font-size="10" font-weight="bold" text-anchor="start" fill="#78909c">ITEMS: 🐧 Linux · 🐳 Docker</text>

  <text x="29" y="315" font-family="ui-monospace,'Cascadia Mono',Menlo,Monaco,'Courier New',monospace" font-size="10" font-weight="bold" text-anchor="start" fill="#000000">🛠 Jenkins/GitlabCI · 🏕 Nomad/Consul/Vault</text>
  <text x="28" y="314" font-family="ui-monospace,'Cascadia Mono',Menlo,Monaco,'Courier New',monospace" font-size="10" font-weight="bold" text-anchor="start" fill="#78909c">🛠 Jenkins/GitlabCI · 🏕 Nomad/Consul/Vault</text>

  <!-- Scanline Overlay confined to the octagon -->
  <path d="M 14,8 H 340 L 346,14 V 346 L 340,352 H 14 L 8,346 V 14 Z" fill="url(#scanlines)" pointer-events="none" />
</svg>