<svg xmlns="http://www.w3.org/2000/svg" width="720" height="300" viewBox="0 0 720 300"><rect x="0" y="0" width="720" height="300" fill="#0f111a"/><rect x="4" y="4" width="712" height="6" fill="#e6e6e6"/><rect x="4" y="290" width="712" height="6" fill="#e6e6e6"/><rect x="4" y="4" width="6" height="292" fill="#e6e6e6"/><rect x="710" y="4" width="6" height="292" fill="#e6e6e6"/><rect x="0" y="0" width="10" height="10" fill="#0f111a"/><rect x="0" y="290" width="10" height="10" fill="#0f111a"/><rect x="710" y="0" width="10" height="10" fill="#0f111a"/><rect x="710" y="290" width="10" height="10" fill="#0f111a"/><rect x="10" y="10" width="4" height="4" fill="#e6e6e6"/><rect x="706" y="10" width="4" height="4" fill="#e6e6e6"/><rect x="10" y="286" width="4" height="4" fill="#e6e6e6"/><rect x="706" y="286" width="4" height="4" fill="#e6e6e6"/><rect x="292.0" y="0" width="136" height="20" fill="#0f111a"/><text x="360.0" y="15" font-family="ui-monospace,'Cascadia Mono',Menlo,Monaco,'Courier New',monospace" font-size="15" font-weight="bold" letter-spacing="2" text-anchor="middle" fill="#ffd54f">SKILL TREE</text><text x="360.0" y="38" font-family="ui-monospace,'Cascadia Mono',Menlo,Monaco,'Courier New',monospace" font-size="11" text-anchor="middle" fill="#78909c">(self-reported, probably inflated)</text><text x="40" y="66" font-family="ui-monospace,'Cascadia Mono',Menlo,Monaco,'Courier New',monospace" font-size="13" font-weight="normal" text-anchor="start" fill="#eceff1">JAVA / KOTLIN / SPRING</text><rect x="300" y="55" width="14" height="12" fill="#00e676"/><rect x="317" y="55" width="14" height="12" fill="#00e676"/><rect x="334" y="55" width="14" height="12" fill="#00e676"/><rect x="351" y="55" width="14" height="12" fill="#00e676"/><rect x="368" y="55" width="14" height="12" fill="#00e676"/><rect x="385" y="55" width="14" height="12" fill="#00e676"/><rect x="402" y="55" width="14" height="12" fill="#00e676"/><rect x="419" y="55" width="14" height="12" fill="#232735"/><rect x="436" y="55" width="14" height="12" fill="#232735"/><rect x="453" y="55" width="14" height="12" fill="#232735"/><text x="490" y="66" font-family="ui-monospace,'Cascadia Mono',Menlo,Monaco,'Courier New',monospace" font-size="13" font-weight="bold" text-anchor="start" fill="#00e676">LV.7</text><text x="545" y="66" font-family="ui-monospace,'Cascadia Mono',Menlo,Monaco,'Courier New',monospace" font-size="12" font-weight="normal" text-anchor="start" fill="#78909c">ok-ish</text><text x="40" y="91" font-family="ui-monospace,'Cascadia Mono',Menlo,Monaco,'Courier New',monospace" font-size="13" font-weight="normal" text-anchor="start" fill="#eceff1">PYTHON / FASTAPI</text><rect x="300" y="80" width="14" height="12" fill="#00e676"/><rect x="317" y="80" width="14" height="12" fill="#00e676"/><rect x="334" y="80" width="14" height="12" fill="#00e676"/><rect x="351" y="80" width="14" height="12" fill="#00e676"/><rect x="368" y="80" width="14" height="12" fill="#00e676"/><rect x="385" y="80" width="14" height="12" fill="#00e676"/><rect x="402" y="80" width="14" height="12" fill="#00e676"/><rect x="419" y="80" width="14" height="12" fill="#232735"/><rect x="436" y="80" width="14" height="12" fill="#232735"/><rect x="453" y="80" width="14" height="12" fill="#232735"/><text x="490" y="91" font-family="ui-monospace,'Cascadia Mono',Menlo,Monaco,'Courier New',monospace" font-size="13" font-weight="bold" text-anchor="start" fill="#00e676">LV.7</text><text x="545" y="91" font-family="ui-monospace,'Cascadia Mono',Menlo,Monaco,'Courier New',monospace" font-size="12" font-weight="normal" text-anchor="start" fill="#78909c">ok-ish</text><text x="40" y="116" font-family="ui-monospace,'Cascadia Mono',Menlo,Monaco,'Courier New',monospace" font-size="13" font-weight="normal" text-anchor="start" fill="#eceff1">JS / TS / NODE</text><rect x="300" y="105" width="14" height="12" fill="#00e676"/><rect x="317" y="105" width="14" height="12" fill="#00e676"/><rect x="334" y="105" width="14" height="12" fill="#00e676"/><rect x="351" y="105" width="14" height="12" fill="#00e676"/><rect x="368" y="105" width="14" height="12" fill="#00e676"/><rect x="385" y="105" width="14" height="12" fill="#00e676"/><rect x="402" y="105" width="14" height="12" fill="#00e676"/><rect x="419" y="105" width="14" height="12" fill="#232735"/><rect x="436" y="105" width="14" height="12" fill="#232735"/><rect x="453" y="105" width="14" height="12" fill="#232735"/><text x="490" y="116" font-family="ui-monospace,'Cascadia Mono',Menlo,Monaco,'Courier New',monospace" font-size="13" font-weight="bold" text-anchor="start" fill="#00e676">LV.7</text><text x="545" y="116" font-family="ui-monospace,'Cascadia Mono',Menlo,Monaco,'Courier New',monospace" font-size="12" font-weight="normal" text-anchor="start" fill="#78909c">ok-ish</text><text x="40" y="141" font-family="ui-monospace,'Cascadia Mono',Menlo,Monaco,'Courier New',monospace" font-size="13" font-weight="normal" text-anchor="start" fill="#eceff1">VUE / NUXT</text><rect x="300" y="130" width="14" height="12" fill="#40c4ff"/><rect x="317" y="130" width="14" height="12" fill="#40c4ff"/><rect x="334" y="130" width="14" height="12" fill="#40c4ff"/><rect x="351" y="130" width="14" height="12" fill="#40c4ff"/><rect x="368" y="130" width="14" height="12" fill="#40c4ff"/><rect x="385" y="130" width="14" height="12" fill="#40c4ff"/><rect x="402" y="130" width="14" height="12" fill="#232735"/><rect x="419" y="130" width="14" height="12" fill="#232735"/><rect x="436" y="130" width="14" height="12" fill="#232735"/><rect x="453" y="130" width="14" height="12" fill="#232735"/><text x="490" y="141" font-family="ui-monospace,'Cascadia Mono',Menlo,Monaco,'Courier New',monospace" font-size="13" font-weight="bold" text-anchor="start" fill="#40c4ff">LV.6</text><text x="545" y="141" font-family="ui-monospace,'Cascadia Mono',Menlo,Monaco,'Courier New',monospace" font-size="12" font-weight="normal" text-anchor="start" fill="#78909c">decent?</text><text x="40" y="166" font-family="ui-monospace,'Cascadia Mono',Menlo,Monaco,'Courier New',monospace" font-size="13" font-weight="normal" text-anchor="start" fill="#eceff1">GOLANG</text><rect x="300" y="155" width="14" height="12" fill="#40c4ff"/><rect x="317" y="155" width="14" height="12" fill="#40c4ff"/><rect x="334" y="155" width="14" height="12" fill="#40c4ff"/><rect x="351" y="155" width="14" height="12" fill="#40c4ff"/><rect x="368" y="155" width="14" height="12" fill="#40c4ff"/><rect x="385" y="155" width="14" height="12" fill="#232735"/><rect x="402" y="155" width="14" height="12" fill="#232735"/><rect x="419" y="155" width="14" height="12" fill="#232735"/><rect x="436" y="155" width="14" height="12" fill="#232735"/><rect x="453" y="155" width="14" height="12" fill="#232735"/><text x="490" y="166" font-family="ui-monospace,'Cascadia Mono',Menlo,Monaco,'Courier New',monospace" font-size="13" font-weight="bold" text-anchor="start" fill="#40c4ff">LV.5</text><text x="545" y="166" font-family="ui-monospace,'Cascadia Mono',Menlo,Monaco,'Courier New',monospace" font-size="12" font-weight="normal" text-anchor="start" fill="#78909c">learning</text><text x="40" y="191" font-family="ui-monospace,'Cascadia Mono',Menlo,Monaco,'Courier New',monospace" font-size="13" font-weight="normal" text-anchor="start" fill="#eceff1">PHP / LARAVEL</text><rect x="300" y="180" width="14" height="12" fill="#40c4ff"/><rect x="317" y="180" width="14" height="12" fill="#40c4ff"/><rect x="334" y="180" width="14" height="12" fill="#40c4ff"/><rect x="351" y="180" width="14" height="12" fill="#40c4ff"/><rect x="368" y="180" width="14" height="12" fill="#40c4ff"/><rect x="385" y="180" width="14" height="12" fill="#232735"/><rect x="402" y="180" width="14" height="12" fill="#232735"/><rect x="419" y="180" width="14" height="12" fill="#232735"/><rect x="436" y="180" width="14" height="12" fill="#232735"/><rect x="453" y="180" width="14" height="12" fill="#232735"/><text x="490" y="191" font-family="ui-monospace,'Cascadia Mono',Menlo,Monaco,'Courier New',monospace" font-size="13" font-weight="bold" text-anchor="start" fill="#40c4ff">LV.5</text><text x="545" y="191" font-family="ui-monospace,'Cascadia Mono',Menlo,Monaco,'Courier New',monospace" font-size="12" font-weight="normal" text-anchor="start" fill="#78909c">rusty</text><text x="40" y="216" font-family="ui-monospace,'Cascadia Mono',Menlo,Monaco,'Courier New',monospace" font-size="13" font-weight="normal" text-anchor="start" fill="#eceff1">DART / FLUTTER</text><rect x="300" y="205" width="14" height="12" fill="#ffd54f"/><rect x="317" y="205" width="14" height="12" fill="#ffd54f"/><rect x="334" y="205" width="14" height="12" fill="#ffd54f"/><rect x="351" y="205" width="14" height="12" fill="#232735"/><rect x="368" y="205" width="14" height="12" fill="#232735"/><rect x="385" y="205" width="14" height="12" fill="#232735"/><rect x="402" y="205" width="14" height="12" fill="#232735"/><rect x="419" y="205" width="14" height="12" fill="#232735"/><rect x="436" y="205" width="14" height="12" fill="#232735"/><rect x="453" y="205" width="14" height="12" fill="#232735"/><text x="490" y="216" font-family="ui-monospace,'Cascadia Mono',Menlo,Monaco,'Courier New',monospace" font-size="13" font-weight="bold" text-anchor="start" fill="#ffd54f">LV.3</text><text x="545" y="216" font-family="ui-monospace,'Cascadia Mono',Menlo,Monaco,'Courier New',monospace" font-size="12" font-weight="normal" text-anchor="start" fill="#78909c">tutorial</text><text x="40" y="241" font-family="ui-monospace,'Cascadia Mono',Menlo,Monaco,'Courier New',monospace" font-size="13" font-weight="normal" text-anchor="start" fill="#eceff1">SWIFT</text><rect x="300" y="230" width="14" height="12" fill="#ff5252"/><rect x="317" y="230" width="14" height="12" fill="#ff5252"/><rect x="334" y="230" width="14" height="12" fill="#232735"/><rect x="351" y="230" width="14" height="12" fill="#232735"/><rect x="368" y="230" width="14" height="12" fill="#232735"/><rect x="385" y="230" width="14" height="12" fill="#232735"/><rect x="402" y="230" width="14" height="12" fill="#232735"/><rect x="419" y="230" width="14" height="12" fill="#232735"/><rect x="436" y="230" width="14" height="12" fill="#232735"/><rect x="453" y="230" width="14" height="12" fill="#232735"/><text x="490" y="241" font-family="ui-monospace,'Cascadia Mono',Menlo,Monaco,'Courier New',monospace" font-size="13" font-weight="bold" text-anchor="start" fill="#ff5252">LV.2</text><text x="545" y="241" font-family="ui-monospace,'Cascadia Mono',Menlo,Monaco,'Courier New',monospace" font-size="12" font-weight="normal" text-anchor="start" fill="#78909c">new save!</text><text x="40" y="272" font-family="ui-monospace,'Cascadia Mono',Menlo,Monaco,'Courier New',monospace" font-size="12" font-weight="normal" text-anchor="start" fill="#78909c">ITEMS: 🐧 Linux · 🐳 Docker · 🛠 Jenkins/GitlabCI · 🏕 Nomad/Consul/Vault</text></svg>