<svg xmlns="http://www.w3.org/2000/svg" width="354" height="360" viewBox="0 0 354 360"><rect x="0" y="0" width="354" height="360" fill="#0f111a"/><rect x="4" y="4" width="346" height="6" fill="#e6e6e6"/><rect x="4" y="350" width="346" height="6" fill="#e6e6e6"/><rect x="4" y="4" width="6" height="352" fill="#e6e6e6"/><rect x="344" y="4" width="6" height="352" fill="#e6e6e6"/><rect x="0" y="0" width="10" height="10" fill="#0f111a"/><rect x="0" y="350" width="10" height="10" fill="#0f111a"/><rect x="344" y="0" width="10" height="10" fill="#0f111a"/><rect x="344" y="350" width="10" height="10" fill="#0f111a"/><rect x="10" y="10" width="4" height="4" fill="#e6e6e6"/><rect x="340" y="10" width="4" height="4" fill="#e6e6e6"/><rect x="10" y="346" width="4" height="4" fill="#e6e6e6"/><rect x="340" y="346" width="4" height="4" fill="#e6e6e6"/><rect x="109.0" y="0" width="136" height="20" fill="#0f111a"/><text x="177.0" y="15" font-family="ui-monospace,'Cascadia Mono',Menlo,Monaco,'Courier New',monospace" font-size="15" font-weight="bold" letter-spacing="2" text-anchor="middle" fill="#ffd54f">SKILL TREE</text><text x="177.0" y="38" font-family="ui-monospace,'Cascadia Mono',Menlo,Monaco,'Courier New',monospace" font-size="10" text-anchor="middle" fill="#78909c">(self-reported, probably inflated)</text><text x="28" y="68" font-family="ui-monospace,'Cascadia Mono',Menlo,Monaco,'Courier New',monospace" font-size="11" font-weight="normal" text-anchor="start" fill="#eceff1">JAVA/KOTLIN/SPRING</text><rect x="170" y="58" width="11" height="10" fill="#00e676"/><rect x="183" y="58" width="11" height="10" fill="#00e676"/><rect x="196" y="58" width="11" height="10" fill="#00e676"/><rect x="209" y="58" width="11" height="10" fill="#00e676"/><rect x="222" y="58" width="11" height="10" fill="#00e676"/><rect x="235" y="58" width="11" height="10" fill="#00e676"/><rect x="248" y="58" width="11" height="10" fill="#00e676"/><rect x="261" y="58" width="11" height="10" fill="#232735"/><rect x="274" y="58" width="11" height="10" fill="#232735"/><rect x="287" y="58" width="11" height="10" fill="#232735"/><text x="304" y="68" font-family="ui-monospace,'Cascadia Mono',Menlo,Monaco,'Courier New',monospace" font-size="11" font-weight="bold" text-anchor="start" fill="#00e676">LV.7</text><text x="28" y="96" font-family="ui-monospace,'Cascadia Mono',Menlo,Monaco,'Courier New',monospace" font-size="11" font-weight="normal" text-anchor="start" fill="#eceff1">PYTHON/FASTAPI</text><rect x="170" y="86" width="11" height="10" fill="#00e676"/><rect x="183" y="86" width="11" height="10" fill="#00e676"/><rect x="196" y="86" width="11" height="10" fill="#00e676"/><rect x="209" y="86" width="11" height="10" fill="#00e676"/><rect x="222" y="86" width="11" height="10" fill="#00e676"/><rect x="235" y="86" width="11" height="10" fill="#00e676"/><rect x="248" y="86" width="11" height="10" fill="#00e676"/><rect x="261" y="86" width="11" height="10" fill="#232735"/><rect x="274" y="86" width="11" height="10" fill="#232735"/><rect x="287" y="86" width="11" height="10" fill="#232735"/><text x="304" y="96" font-family="ui-monospace,'Cascadia Mono',Menlo,Monaco,'Courier New',monospace" font-size="11" font-weight="bold" text-anchor="start" fill="#00e676">LV.7</text><text x="28" y="124" font-family="ui-monospace,'Cascadia Mono',Menlo,Monaco,'Courier New',monospace" font-size="11" font-weight="normal" text-anchor="start" fill="#eceff1">JS/TS/NODE</text><rect x="170" y="114" width="11" height="10" fill="#00e676"/><rect x="183" y="114" width="11" height="10" fill="#00e676"/><rect x="196" y="114" width="11" height="10" fill="#00e676"/><rect x="209" y="114" width="11" height="10" fill="#00e676"/><rect x="222" y="114" width="11" height="10" fill="#00e676"/><rect x="235" y="114" width="11" height="10" fill="#00e676"/><rect x="248" y="114" width="11" height="10" fill="#00e676"/><rect x="261" y="114" width="11" height="10" fill="#232735"/><rect x="274" y="114" width="11" height="10" fill="#232735"/><rect x="287" y="114" width="11" height="10" fill="#232735"/><text x="304" y="124" font-family="ui-monospace,'Cascadia Mono',Menlo,Monaco,'Courier New',monospace" font-size="11" font-weight="bold" text-anchor="start" fill="#00e676">LV.7</text><text x="28" y="152" font-family="ui-monospace,'Cascadia Mono',Menlo,Monaco,'Courier New',monospace" font-size="11" font-weight="normal" text-anchor="start" fill="#eceff1">VUE/NUXT</text><rect x="170" y="142" width="11" height="10" fill="#40c4ff"/><rect x="183" y="142" width="11" height="10" fill="#40c4ff"/><rect x="196" y="142" width="11" height="10" fill="#40c4ff"/><rect x="209" y="142" width="11" height="10" fill="#40c4ff"/><rect x="222" y="142" width="11" height="10" fill="#40c4ff"/><rect x="235" y="142" width="11" height="10" fill="#40c4ff"/><rect x="248" y="142" width="11" height="10" fill="#232735"/><rect x="261" y="142" width="11" height="10" fill="#232735"/><rect x="274" y="142" width="11" height="10" fill="#232735"/><rect x="287" y="142" width="11" height="10" fill="#232735"/><text x="304" y="152" font-family="ui-monospace,'Cascadia Mono',Menlo,Monaco,'Courier New',monospace" font-size="11" font-weight="bold" text-anchor="start" fill="#40c4ff">LV.6</text><text x="28" y="180" font-family="ui-monospace,'Cascadia Mono',Menlo,Monaco,'Courier New',monospace" font-size="11" font-weight="normal" text-anchor="start" fill="#eceff1">GOLANG</text><rect x="170" y="170" width="11" height="10" fill="#40c4ff"/><rect x="183" y="170" width="11" height="10" fill="#40c4ff"/><rect x="196" y="170" width="11" height="10" fill="#40c4ff"/><rect x="209" y="170" width="11" height="10" fill="#40c4ff"/><rect x="222" y="170" width="11" height="10" fill="#40c4ff"/><rect x="235" y="170" width="11" height="10" fill="#232735"/><rect x="248" y="170" width="11" height="10" fill="#232735"/><rect x="261" y="170" width="11" height="10" fill="#232735"/><rect x="274" y="170" width="11" height="10" fill="#232735"/><rect x="287" y="170" width="11" height="10" fill="#232735"/><text x="304" y="180" font-family="ui-monospace,'Cascadia Mono',Menlo,Monaco,'Courier New',monospace" font-size="11" font-weight="bold" text-anchor="start" fill="#40c4ff">LV.5</text><text x="28" y="208" font-family="ui-monospace,'Cascadia Mono',Menlo,Monaco,'Courier New',monospace" font-size="11" font-weight="normal" text-anchor="start" fill="#eceff1">PHP/LARAVEL</text><rect x="170" y="198" width="11" height="10" fill="#40c4ff"/><rect x="183" y="198" width="11" height="10" fill="#40c4ff"/><rect x="196" y="198" width="11" height="10" fill="#40c4ff"/><rect x="209" y="198" width="11" height="10" fill="#40c4ff"/><rect x="222" y="198" width="11" height="10" fill="#40c4ff"/><rect x="235" y="198" width="11" height="10" fill="#232735"/><rect x="248" y="198" width="11" height="10" fill="#232735"/><rect x="261" y="198" width="11" height="10" fill="#232735"/><rect x="274" y="198" width="11" height="10" fill="#232735"/><rect x="287" y="198" width="11" height="10" fill="#232735"/><text x="304" y="208" font-family="ui-monospace,'Cascadia Mono',Menlo,Monaco,'Courier New',monospace" font-size="11" font-weight="bold" text-anchor="start" fill="#40c4ff">LV.5</text><text x="28" y="236" font-family="ui-monospace,'Cascadia Mono',Menlo,Monaco,'Courier New',monospace" font-size="11" font-weight="normal" text-anchor="start" fill="#eceff1">DART/FLUTTER</text><rect x="170" y="226" width="11" height="10" fill="#ffd54f"/><rect x="183" y="226" width="11" height="10" fill="#ffd54f"/><rect x="196" y="226" width="11" height="10" fill="#ffd54f"/><rect x="209" y="226" width="11" height="10" fill="#232735"/><rect x="222" y="226" width="11" height="10" fill="#232735"/><rect x="235" y="226" width="11" height="10" fill="#232735"/><rect x="248" y="226" width="11" height="10" fill="#232735"/><rect x="261" y="226" width="11" height="10" fill="#232735"/><rect x="274" y="226" width="11" height="10" fill="#232735"/><rect x="287" y="226" width="11" height="10" fill="#232735"/><text x="304" y="236" font-family="ui-monospace,'Cascadia Mono',Menlo,Monaco,'Courier New',monospace" font-size="11" font-weight="bold" text-anchor="start" fill="#ffd54f">LV.3</text><text x="28" y="264" font-family="ui-monospace,'Cascadia Mono',Menlo,Monaco,'Courier New',monospace" font-size="11" font-weight="normal" text-anchor="start" fill="#eceff1">SWIFT</text><rect x="170" y="254" width="11" height="10" fill="#ff5252"/><rect x="183" y="254" width="11" height="10" fill="#ff5252"/><rect x="196" y="254" width="11" height="10" fill="#232735"/><rect x="209" y="254" width="11" height="10" fill="#232735"/><rect x="222" y="254" width="11" height="10" fill="#232735"/><rect x="235" y="254" width="11" height="10" fill="#232735"/><rect x="248" y="254" width="11" height="10" fill="#232735"/><rect x="261" y="254" width="11" height="10" fill="#232735"/><rect x="274" y="254" width="11" height="10" fill="#232735"/><rect x="287" y="254" width="11" height="10" fill="#232735"/><text x="304" y="264" font-family="ui-monospace,'Cascadia Mono',Menlo,Monaco,'Courier New',monospace" font-size="11" font-weight="bold" text-anchor="start" fill="#ff5252">LV.2</text><text x="28" y="296" font-family="ui-monospace,'Cascadia Mono',Menlo,Monaco,'Courier New',monospace" font-size="10" font-weight="normal" text-anchor="start" fill="#78909c">ITEMS: 🐧 Linux · 🐳 Docker</text><text x="28" y="314" font-family="ui-monospace,'Cascadia Mono',Menlo,Monaco,'Courier New',monospace" font-size="10" font-weight="normal" text-anchor="start" fill="#78909c">🛠 Jenkins/GitlabCI · 🏕 Nomad/Consul/Vault</text></svg>